# xmcd CD database file
#
# Track frame offsets:
#	150
#	17578
#	37634
#	42053
#	59836
#	81090
#	106476
#	120082
#	142778
#	169909
#	190447
#
# Disc length: 2603 seconds
#
# Revision: 0
# Processed by: cddbd v1.5PL3 Copyright (c) Steve Scherf et al.
# Submitted via: CDex 1.50
#
DISCID=830a290b
DTITLE=池澤春菜 - ショコラ
DYEAR=2000
DGENRE=Vocal
TTITLE0=いのり
TTITLE1=ECLIPSE
TTITLE2=Etude(scat)
TTITLE3=神サマの名前
TTITLE4=知ってるの
TTITLE5=LOVE SONG
TTITLE6=ママ
TTITLE7=KILLING ME SOFTRY WITH HIS SONG
TTITLE8=ラプンツェル
TTITLE9=歩いていこう
TTITLE10=Etude(reprise)
EXTD=YEAR: 2000
EXTT0=
EXTT1=
EXTT2=
EXTT3=
EXTT4=
EXTT5=
EXTT6=
EXTT7=
EXTT8=
EXTT9=
EXTT10=
PLAYORDER=
